<svg height="511pt" viewBox="0 -25 511.99948 511" width="511pt" xmlns="http://www.w3.org/2000/svg"><path d="m48.753906 131.289062-47.519531-109.832031c-2.007813-4.636719-1.542969-9.972656 1.230469-14.195312 2.773437-4.21875 7.484375-6.761719 12.535156-6.761719h76.535156c5.984375 0 11.394532 3.554688 13.769532 9.042969l56.902343 130.792969h-99.6875c-5.980469 0-11.390625-3.554688-13.765625-9.046876zm0 0" fill="#ffbe85"/><path d="m449.480469 140.335938h-99.6875l56.902343-130.792969c2.375-5.488281 7.785157-9.042969 13.769532-9.042969h76.535156c5.050781 0 9.761719 2.542969 12.535156 6.761719 2.773438 4.222656 3.238282 9.558593 1.230469 14.195312l-47.519531 109.832031c-2.375 5.492188-7.785156 9.046876-13.765625 9.046876zm0 0" fill="#f58a4e"/><path d="m449.523438 461.496094h-109.878907c-8.285156 0-15-6.714844-15-25v-307.160156h139.875v317.160156c0 8.285156-6.714843 15-14.996093 15zm0 0" fill="#faa465"/><path d="m339.644531 461.496094h-277.164062c-8.285157 0-15-6.714844-15-15v-317.160156h307.164062v317.160156c0 8.285156-6.714843 15-15 15zm0 0" fill="#ffdaab"/><path d="m201.0625 461.496094h138.582031c8.285157 0 15-6.714844 15-15v-317.160156h-153.582031zm0 0" fill="#ffbe85"/><path d="m226.0625 249.523438h-50c-16.566406 0-30-13.429688-30-30 0-16.570313 13.433594-30 30-30h50c16.566406 0 30 13.429687 30 30 0 16.570312-13.433594 30-30 30zm0 0" fill="#af5a2b"/><path d="m226.0625 189.523438h-25v60h25c16.566406 0 30-13.429688 30-30 0-16.570313-13.433594-30-30-30zm0 0" fill="#783207"/><path d="m412.609375 461.492188c-4.117187 0-8.050781-1.691407-10.882813-4.675782-3.613281-3.808594-88.496093-94.140625-88.496093-169.140625 0-54.800781 44.582031-99.382812 99.378906-99.382812s99.378906 44.582031 99.378906 99.378906c0 75.003906-84.886719 165.335937-88.5 169.144531-2.832031 2.984375-6.765625 4.675782-10.878906 4.675782zm0 0" fill="#c5ed4e"/><path d="m423.488281 456.816406c3.613281-3.808594 88.5-94.140625 88.5-169.144531 0-54.796875-44.582031-99.378906-99.378906-99.378906v273.199219c4.113281 0 8.046875-1.691407 10.878906-4.675782zm0 0" fill="#8fd553"/><path d="m412.609375 331.589844c-22.054687 0-40-17.945313-40-40 0-22.054688 17.945313-40 40-40s40 17.945312 40 40c0 22.054687-17.945313 40-40 40zm0-40" fill="#38b57c"/><path d="m452.609375 291.589844c0-22.054688-17.945313-40-40-40v80c22.054687 0 40-17.945313 40-40zm0 0" fill="#148253"/></svg>